<svg xmlns="http://www.w3.org/2000/svg" width="129.6" height="61.454" viewBox="0 0 129.6 61.454">
  <g id="Group_140" data-name="Group 140" transform="translate(-375 -7165)">
    <g id="Group_1" data-name="Group 1" transform="translate(375 7165.178)">
      <path id="Path_1" data-name="Path 1" d="M-1297.122,334.493v8.378h-29.528a6.744,6.744,0,0,0,1.407-4.453V306.313a6.74,6.74,0,0,0-1.407-4.453h9.842a6.762,6.762,0,0,0-1.464,4.453V341.7h11.6C-1302.864,341.7-1299.056,338.828-1297.122,334.493Z" transform="translate(1326.65 -301.86)" fill="#fff"/>
    </g>
    <g id="Group_2" data-name="Group 2" transform="translate(473.607 7165.178)">
      <path id="Path_2" data-name="Path 2" d="M-1237.768,321.486V303.031h12.714c3.748,0,7.441,2.754,9.315,6.913V301.86h-30.406a6.741,6.741,0,0,1,1.407,4.453v32.105a6.746,6.746,0,0,1-1.407,4.453h30.993v-8.143c-1.875,4.218-5.566,6.971-9.316,6.971h-13.3v-19.04" transform="translate(1246.146 -301.86)" fill="#fff"/>
    </g>
    <g id="Group_4" data-name="Group 4" transform="translate(485.914 7181.247)">
      <path id="Path_3" data-name="Path 3" d="M-1231.219,318.845h-4.684v1.129h4.684a8.332,8.332,0,0,1,6.944,3.839v-8.808A8.331,8.331,0,0,1-1231.219,318.845Z" transform="translate(1235.903 -315.005)" fill="#fff"/>
    </g>
    <path id="Path_4" data-name="Path 4" d="M-1268.046,314.039v13.389c0,8.318-5.038,13.649-13,13.649-8.083,0-13.356-5.331-13.356-13.649V306.163a6.751,6.751,0,0,1,1.465-4.451h-9.841a6.744,6.744,0,0,1,1.406,4.451v20.327c0,10.133,7.674,16.812,18.276,16.812,10.31,0,16.46-6.268,16.46-15.7V316.157Z" transform="translate(1707.049 6863.288)" fill="#fff"/>
    <path id="Path_5" data-name="Path 5" d="M-1257.288,319.543l-7.625-11.466c-1.511-2.385-1.687-4.771-.346-6.109h-12.164a31.316,31.316,0,0,1,4.946,5.994l10.416,15.654-9.192,13.154c-1.862,2.734-4.194,5.121-5.762,5.935h7.1c-1.336-1.28-1.223-3.493.232-5.528l8.439-12.279,8.378,12.568c1.284,1.921,1.223,4.015-.113,5.238h12.163a25.679,25.679,0,0,1-4.772-5.528l-10.884-16.352" transform="translate(1712.791 6863.34)" fill="#fff"/>
    <g id="Group_7" data-name="Group 7" transform="translate(457.946 7165.308)">
      <path id="Path_6" data-name="Path 6" d="M-1258.631,316.007l.846,1.276,6.43-9.206a22,22,0,0,1,5.936-6.109h-7.1c1.342,1.163,1.284,3.433-.232,5.529Z" transform="translate(1258.631 -301.968)" fill="#fff"/>
    </g>
    <path id="Path_7" data-name="Path 7" d="M-1316.38,352.246a2.061,2.061,0,0,1-.686-1.606,2.071,2.071,0,0,1,.686-1.608,2.476,2.476,0,0,1,1.73-.618,2.862,2.862,0,0,1,1.483.421v.828a2.306,2.306,0,0,0-1.458-.538,1.735,1.735,0,0,0-1.192.421,1.385,1.385,0,0,0-.47,1.095,1.383,1.383,0,0,0,.47,1.093,1.735,1.735,0,0,0,1.192.421,2.333,2.333,0,0,0,1.458-.532v.822a2.862,2.862,0,0,1-1.483.421A2.476,2.476,0,0,1-1316.38,352.246Z" transform="translate(1703.581 6873.59)" fill="#fff"/>
    <path id="Path_8" data-name="Path 8" d="M-1303.812,352.792l-.42-1.045h-2.082l-.421,1.045h-.79l1.785-4.326h.934l1.785,4.326Zm-2.231-1.73h1.539l-.766-1.91Z" transform="translate(1705.854 6873.601)" fill="#fff"/>
    <path id="Path_9" data-name="Path 9" d="M-1294.438,352.792l-1.286-1.767h-.883v1.767h-.742v-4.326h2.261c.884,0,1.441.464,1.441,1.236a1.247,1.247,0,0,1-1.262,1.317,6.128,6.128,0,0,1,.409.494l.957,1.28Zm-2.168-3.64v1.187h1.5c.445,0,.7-.21.7-.625,0-.377-.234-.562-.7-.562Z" transform="translate(1708.089 6873.601)" fill="#fff"/>
    <path id="Path_10" data-name="Path 10" d="M-1277.574,352.792l-1.286-1.767h-.883v1.767h-.741v-4.326h2.261c.884,0,1.441.464,1.441,1.236a1.247,1.247,0,0,1-1.261,1.317c.13.142.266.3.408.494l.958,1.28Zm-2.168-3.64v1.187h1.5c.445,0,.7-.21.7-.625,0-.377-.235-.562-.7-.562Z" transform="translate(1711.794 6873.601)" fill="#fff"/>
    <path id="Path_11" data-name="Path 11" d="M-1267.616,349.152h-2.479v.977h2.343v.674h-2.343v1.3h2.479v.686h-3.22v-4.326h3.22Z" transform="translate(1713.91 6873.601)" fill="#fff"/>
    <path id="Path_12" data-name="Path 12" d="M-1258.357,348.466h.741v4.388h-.012l-3.065-3.442v3.381h-.742v-4.326h.9l2.182,2.441Z" transform="translate(1715.98 6873.601)" fill="#fff"/>
    <path id="Path_13" data-name="Path 13" d="M-1247.822,348.466v.692h-1.625v3.634h-.741v-3.634h-1.62v-.692Z" transform="translate(1718.098 6873.601)" fill="#fff"/>
    <path id="Path_14" data-name="Path 14" d="M-1239,352.792l-.421-1.045h-2.082l-.42,1.045h-.791l1.785-4.326h.933l1.786,4.326Zm-2.231-1.73h1.539l-.767-1.91Z" transform="translate(1720.102 6873.601)" fill="#fff"/>
    <path id="Path_15" data-name="Path 15" d="M-1231.795,352.1h2.385v.692h-3.126v-4.326h.741Z" transform="translate(1722.495 6873.601)" fill="#fff"/>
  </g>
</svg>
