<svg xmlns="http://www.w3.org/2000/svg" width="16" height="16" viewBox="0 0 16 16">
  <path id="Icon_awesome-bitcoin" data-name="Icon awesome-bitcoin" d="M16.563,8.563a8,8,0,1,1-8-8A8,8,0,0,1,16.563,8.563Zm-4.569-1.14c.159-1.064-.651-1.637-1.76-2.018l.36-1.442-.878-.219-.35,1.4c-.231-.058-.468-.112-.7-.165l.353-1.413L8.137,3.35l-.36,1.441c-.191-.044-.379-.087-.561-.132v0l-1.211-.3-.234.937s.651.149.638.158a.467.467,0,0,1,.409.51L6.411,7.6a.728.728,0,0,1,.091.029l-.093-.023-.574,2.3a.32.32,0,0,1-.4.209c.009.013-.638-.159-.638-.159l-.436,1,1.142.285c.213.053.421.109.626.161l-.363,1.458.877.219L7,11.644q.349.095.7.182l-.359,1.436.878.219.363-1.456c1.5.283,2.623.169,3.1-1.185a1.54,1.54,0,0,0-.807-2.129,1.4,1.4,0,0,0,1.121-1.289ZM9.987,10.235c-.271,1.09-2.107.5-2.7.353l.482-1.932c.6.148,2.5.442,2.22,1.579Zm.272-2.828c-.248.991-1.775.488-2.271.364l.437-1.752C8.921,6.142,10.517,6.373,10.259,7.407Z" transform="translate(-0.563 -0.563)" fill="#6b6b6b"/>
</svg>
