<svg id="instagram-logo" xmlns="http://www.w3.org/2000/svg" width="24" height="24" viewBox="0 0 24 24">
  <path id="Path_19" data-name="Path 19" d="M17.377,0H6.623A6.631,6.631,0,0,0,0,6.623V17.377A6.631,6.631,0,0,0,6.623,24H17.377A6.631,6.631,0,0,0,24,17.377V6.623A6.631,6.631,0,0,0,17.377,0Zm4.494,17.377a4.5,4.5,0,0,1-4.494,4.494H6.623a4.5,4.5,0,0,1-4.494-4.494V6.623A4.5,4.5,0,0,1,6.623,2.129H17.377a4.5,4.5,0,0,1,4.494,4.494V17.377Z" transform="translate(0 0)" fill="#fff"/>
  <path id="Path_20" data-name="Path 20" d="M47.038,40.97a6.07,6.07,0,1,0,6.07,6.07A6.077,6.077,0,0,0,47.038,40.97Zm0,10.05a3.98,3.98,0,1,1,3.98-3.98A3.984,3.984,0,0,1,47.038,51.02Z" transform="translate(-35.038 -35.04)" fill="#fff"/>
  <path id="Path_21" data-name="Path 21" d="M120.513,28.251a1.591,1.591,0,1,0,1.126.466A1.6,1.6,0,0,0,120.513,28.251Z" transform="translate(-102.088 -24.252)" fill="#fff"/>
</svg>
