<svg xmlns="http://www.w3.org/2000/svg" width="27.901" height="22" viewBox="0 0 27.901 22">
  <g id="Icon_ionic-ios-menu" data-name="Icon ionic-ios-menu" transform="translate(-4.5 -10.125)">
    <path id="Path_24" data-name="Path 24" d="M31.238,12.375H5.663A1.148,1.148,0,0,1,4.5,11.25h0a1.148,1.148,0,0,1,1.163-1.125H31.238A1.148,1.148,0,0,1,32.4,11.25h0A1.148,1.148,0,0,1,31.238,12.375Z" transform="translate(0)" fill="#151515"/>
    <path id="Path_25" data-name="Path 25" d="M31.238,19.125H5.663A1.148,1.148,0,0,1,4.5,18h0a1.148,1.148,0,0,1,1.163-1.125H31.238A1.148,1.148,0,0,1,32.4,18h0A1.148,1.148,0,0,1,31.238,19.125Z" transform="translate(0 3.125)" fill="#151515"/>
    <path id="Path_26" data-name="Path 26" d="M31.238,25.875H5.663A1.148,1.148,0,0,1,4.5,24.75h0a1.148,1.148,0,0,1,1.163-1.125H31.238A1.148,1.148,0,0,1,32.4,24.75h0A1.148,1.148,0,0,1,31.238,25.875Z" transform="translate(0 6.25)" fill="#151515"/>
  </g>
</svg>
