<svg id="instagram-logo" xmlns="http://www.w3.org/2000/svg" width="14.352" height="14.352" viewBox="0 0 14.352 14.352">
  <path id="Path_19" data-name="Path 19" d="M10.391,0H3.96A3.965,3.965,0,0,0,0,3.961v6.431a3.965,3.965,0,0,0,3.96,3.961h6.431a3.965,3.965,0,0,0,3.961-3.961V3.961A3.965,3.965,0,0,0,10.391,0Zm2.687,10.391a2.69,2.69,0,0,1-2.687,2.687H3.96a2.69,2.69,0,0,1-2.687-2.687V3.961A2.69,2.69,0,0,1,3.96,1.273h6.431a2.69,2.69,0,0,1,2.687,2.687v6.431Z" fill="#fff"/>
  <path id="Path_20" data-name="Path 20" d="M44.663,40.97a3.695,3.695,0,1,0,3.695,3.695A3.7,3.7,0,0,0,44.663,40.97Zm0,6.117a2.422,2.422,0,1,1,2.423-2.422A2.425,2.425,0,0,1,44.663,47.087Z" transform="translate(-37.487 -37.489)" fill="#fff"/>
  <path id="Path_21" data-name="Path 21" d="M119.856,28.251a.934.934,0,1,0,.661.274A.938.938,0,0,0,119.856,28.251Z" transform="translate(-108.827 -25.853)" fill="#fff"/>
</svg>
