<svg xmlns="http://www.w3.org/2000/svg" width="149.401" height="70.844" viewBox="0 0 149.401 70.844">
  <g id="Group_49" data-name="Group 49" transform="translate(2792 -5323)">
    <g id="Group_3" data-name="Group 3" transform="translate(-2792 5323.205)">
      <g id="Group_1" data-name="Group 1">
        <path id="Path_1" data-name="Path 1" d="M-1292.61,339.479v9.658h-34.04a7.774,7.774,0,0,0,1.622-5.133v-37.01a7.769,7.769,0,0,0-1.622-5.133h11.346a7.794,7.794,0,0,0-1.688,5.133v40.792h13.373C-1299.23,347.784-1294.84,344.476-1292.61,339.479Z" transform="translate(1326.65 -301.86)" fill="#151515"/>
      </g>
      <g id="Group_2" data-name="Group 2" transform="translate(113.673)">
        <path id="Path_2" data-name="Path 2" d="M-1236.488,324.484V303.211h14.656c4.322,0,8.578,3.174,10.738,7.969v-9.32h-35.052a7.769,7.769,0,0,1,1.622,5.133V344a7.774,7.774,0,0,1-1.622,5.133h35.728v-9.388c-2.162,4.863-6.417,8.036-10.74,8.036h-15.331V325.836" transform="translate(1246.146 -301.86)" fill="#151515"/>
      </g>
    </g>
    <g id="Group_5" data-name="Group 5" transform="translate(-2664.141 5341.729)">
      <g id="Group_4" data-name="Group 4">
        <path id="Path_3" data-name="Path 3" d="M-1230.5,319.432h-5.4v1.3h5.4a9.606,9.606,0,0,1,8.005,4.425V315.005A9.6,9.6,0,0,1-1230.5,319.432Z" transform="translate(1235.903 -315.005)" fill="#151515"/>
      </g>
    </g>
    <g id="Group_6" data-name="Group 6" transform="translate(-2758.262 5323)">
      <path id="Path_4" data-name="Path 4" d="M-1262.739,315.922v15.435c0,9.588-5.807,15.734-14.991,15.734-9.318,0-15.4-6.145-15.4-15.734V306.844a7.781,7.781,0,0,1,1.689-5.132h-11.345a7.774,7.774,0,0,1,1.62,5.132v23.433c0,11.681,8.846,19.381,21.069,19.381,11.885,0,18.975-7.226,18.975-18.1v-13.2Z" transform="translate(1302.782 -301.712)" fill="#151515"/>
    </g>
    <g id="Group_8" data-name="Group 8" transform="translate(-2722.407 5323.355)">
      <path id="Path_5" data-name="Path 5" d="M-1254.212,322.228l-8.79-13.217c-1.742-2.749-1.944-5.5-.4-7.043h-14.022a36.1,36.1,0,0,1,5.7,6.91l12.007,18.045-10.6,15.163c-2.147,3.152-4.835,5.9-6.643,6.842h8.183c-1.54-1.475-1.41-4.026.267-6.372l9.728-14.155,9.658,14.489c1.48,2.215,1.41,4.629-.13,6.039h14.022a29.594,29.594,0,0,1-5.5-6.372l-12.547-18.85" transform="translate(1277.422 -301.968)" fill="#151515"/>
      <g id="Group_7" data-name="Group 7" transform="translate(26.026)">
        <path id="Path_6" data-name="Path 6" d="M-1258.631,318.152l.975,1.471,7.413-10.612c2.282-3.285,5.03-6.036,6.843-7.043h-8.188c1.547,1.341,1.48,3.957-.267,6.374Z" transform="translate(1258.631 -301.968)" fill="#151515"/>
      </g>
    </g>
    <path id="Path_7" data-name="Path 7" d="M-1316.275,352.832a2.375,2.375,0,0,1-.791-1.852,2.387,2.387,0,0,1,.791-1.853,2.853,2.853,0,0,1,1.994-.712,3.3,3.3,0,0,1,1.709.485v.954a2.659,2.659,0,0,0-1.681-.62,2,2,0,0,0-1.374.485,1.6,1.6,0,0,0-.542,1.262,1.594,1.594,0,0,0,.542,1.26,2,2,0,0,0,1.374.485,2.69,2.69,0,0,0,1.681-.613v.947a3.3,3.3,0,0,1-1.709.485A2.853,2.853,0,0,1-1316.275,352.832Z" transform="translate(-1461.66 5040.3)" fill="#151515"/>
    <path id="Path_8" data-name="Path 8" d="M-1303.245,353.453l-.485-1.2h-2.4l-.485,1.2h-.911l2.058-4.987h1.076l2.058,4.987Zm-2.572-1.994h1.774l-.884-2.2Z" transform="translate(-1457.582 5040.32)" fill="#151515"/>
    <path id="Path_9" data-name="Path 9" d="M-1293.993,353.453l-1.482-2.037h-1.018v2.037h-.855v-4.987h2.607c1.02,0,1.661.535,1.661,1.425a1.437,1.437,0,0,1-1.454,1.518,7.119,7.119,0,0,1,.471.569l1.1,1.475Zm-2.5-4.2v1.368h1.724c.512,0,.811-.242.811-.72,0-.435-.27-.648-.811-.648Z" transform="translate(-1453.451 5040.32)" fill="#151515"/>
    <path id="Path_10" data-name="Path 10" d="M-1277.129,353.453l-1.482-2.037h-1.018v2.037h-.855v-4.987h2.606c1.02,0,1.661.535,1.661,1.425a1.437,1.437,0,0,1-1.454,1.518c.149.163.306.349.471.569l1.1,1.475Zm-2.5-4.2v1.368h1.724c.512,0,.811-.242.811-.72,0-.435-.271-.648-.811-.648Z" transform="translate(-1446.603 5040.32)" fill="#151515"/>
    <path id="Path_11" data-name="Path 11" d="M-1267.124,349.257h-2.857v1.126h2.7v.777h-2.7v1.5h2.857v.791h-3.712v-4.987h3.712Z" transform="translate(-1442.69 5040.32)" fill="#151515"/>
    <path id="Path_12" data-name="Path 12" d="M-1257.886,348.466h.855v5.058h-.014l-3.533-3.968v3.9h-.856v-4.987h1.033l2.515,2.814Z" transform="translate(-1438.867 5040.32)" fill="#151515"/>
    <path id="Path_13" data-name="Path 13" d="M-1247.213,348.466v.8h-1.873v4.19h-.854v-4.19h-1.867v-.8Z" transform="translate(-1434.955 5040.32)" fill="#151515"/>
    <path id="Path_14" data-name="Path 14" d="M-1238.433,353.453l-.485-1.2h-2.4l-.485,1.2h-.911l2.058-4.987h1.076l2.058,4.987Zm-2.572-1.994h1.774l-.884-2.2Z" transform="translate(-1431.255 5040.32)" fill="#151515"/>
    <path id="Path_15" data-name="Path 15" d="M-1231.682,352.656h2.75v.8h-3.6v-4.987h.854Z" transform="translate(-1426.941 5040.32)" fill="#151515"/>
  </g>
</svg>
