<svg id="twitter-logo-silhouette" xmlns="http://www.w3.org/2000/svg" width="17.668" height="14.352" viewBox="0 0 17.668 14.352">
  <g id="Group_9" data-name="Group 9" transform="translate(0 0)">
    <path id="Path_18" data-name="Path 18" d="M17.669,59.139a7.238,7.238,0,0,1-2.081.571,3.64,3.64,0,0,0,1.593-2,7.307,7.307,0,0,1-2.3.88A3.627,3.627,0,0,0,8.7,61.89,10.29,10.29,0,0,1,1.232,58.1a3.629,3.629,0,0,0,1.122,4.838,3.625,3.625,0,0,1-1.642-.455v.045a3.628,3.628,0,0,0,2.907,3.554,3.671,3.671,0,0,1-.955.127,3.479,3.479,0,0,1-.682-.067,3.626,3.626,0,0,0,3.385,2.517,7.272,7.272,0,0,1-4.5,1.549A7.7,7.7,0,0,1,0,70.162a10.245,10.245,0,0,0,5.556,1.631A10.241,10.241,0,0,0,15.869,61.481l-.012-.469A7.238,7.238,0,0,0,17.669,59.139Z" transform="translate(-0.001 -57.441)" fill="#fff"/>
  </g>
</svg>
